<svg xmlns="http://www.w3.org/2000/svg" viewBox="0 0 100 100">
  <rect width="100" height="100" fill="white"/>
  <path d="M50 20C36.193 20 25 31.193 25 45C25 53.284 29.163 60.622 35.547 65.047C36.719 65.922 37.5 67.266 37.5 68.75V75C37.5 76.381 38.619 77.5 40 77.5H60C61.381 77.5 62.5 76.381 62.5 75V68.75C62.5 67.266 63.281 65.922 64.453 65.047C70.837 60.622 75 53.284 75 45C75 31.193 63.807 20 50 20Z" stroke="black" stroke-width="3" fill="none"/>
  <path d="M42.5 77.5V80C42.5 82.761 44.739 85 47.5 85H52.5C55.261 85 57.5 82.761 57.5 80V77.5" stroke="black" stroke-width="3" fill="none"/>
  <circle cx="50" cy="45" r="8" fill="gold" opacity="0.5"/>
</svg>